<svg id="_x33_0" enable-background="new 0 0 64 64" height="512" viewBox="0 0 64 64" width="512" xmlns="http://www.w3.org/2000/svg"><g><path d="m27.707 19.707 2.707-2.707-2.707-2.707-1.414 1.414 1.293 1.293-1.293 1.293z"/><path d="m37.707 18.293-1.293-1.293 1.293-1.293-1.414-1.414-2.707 2.707 2.707 2.707z"/><path d="m46.95 34.157c-1.658-1.382-3.667-2.254-5.81-2.522l-4.14-.518v-1.414c1.429-.789 2.675-1.912 3.611-3.317l.056-.083c.474-.711.814-1.488 1.038-2.3h.295c2.206 0 4-1.794 4-4 0-.925-.329-1.768-.858-2.446l.662-2.649c.13-.522.196-1.06.196-1.596 0-1.758-.685-3.412-1.928-4.655l-.083-.083c-.222-4.214-3.72-7.574-7.989-7.574h-9.978c-3.872 0-7.022 3.15-7.022 7.022 0 .756.121 1.503.36 2.221l.44 1.319c-1.126.842-1.8 2.164-1.8 3.608 0 .697.165 1.394.476 2.018l.259.518c-.46.652-.735 1.442-.735 2.297 0 2.206 1.794 4 4 4h.296c.223.811.564 1.589 1.037 2.299l.058.087c.936 1.403 2.181 2.525 3.609 3.314v1.414l-4.141.517c-2.143.268-4.151 1.14-5.81 2.522-2.573 2.146-4.049 5.298-4.049 8.648v8.196c0 3.309 2.691 6 6 6h2v6h22v-6h2c3.309 0 6-2.691 6-6v-8.196c0-3.35-1.476-6.502-4.05-8.647zm-16.617.843-1.975 1.481-1.656-3.311 1.02-.128zm5.944-1.958 1.02.128-1.656 3.311-1.974-1.481zm5.723-11.039h-.008c0-.035.008-.07.008-.105v-3.895c1.103 0 2 .897 2 2s-.897 2-2 2zm-20 0c-1.103 0-2-.897-2-2s.897-2 2-2v3.894c0 .036.007.07.008.106zm.048-6h-.048c-.605 0-1.173.145-1.687.386l-.047-.095c-.174-.347-.266-.735-.266-1.123 0-.958.532-1.819 1.447-2.276l.776-.388-.965-2.895c-.171-.514-.258-1.049-.258-1.59 0-2.769 2.253-5.022 5.022-5.022h9.978c3.309 0 6 2.691 6 6v.414l.658.658c.853.853 1.342 2.034 1.342 3.241 0 .374-.046.749-.137 1.112l-.462 1.846c-.438-.165-.907-.267-1.402-.267h-.03c-.153-2.27-1.809-4.172-4.076-4.584l-3.609-.656c-1.903-.347-3.284-2.003-3.284-3.937v-1.827h-2v1.827c0 1.035.264 2.017.732 2.875l-3.63 1.21c-2.26.753-3.82 2.758-4.054 5.091zm3.009 9.279-.058-.087c-.654-.98-.999-2.12-.999-3.298v-5.293c0-1.725 1.099-3.25 2.735-3.795l4.336-1.445c.79.684 1.765 1.168 2.855 1.367l3.61.656c1.428.259 2.464 1.501 2.464 2.951v5.56c0 1.178-.345 2.317-.993 3.289l-.06.09c-1.553 2.33-4.149 3.72-6.947 3.72-.001 0-.003 0-.005 0-2.795-.002-5.389-1.391-6.938-3.715zm6.937 5.715h.006c1.033 0 2.038-.17 3-.461v.964l-3 2.25-3-2.25v-.964c.96.29 1.963.46 2.994.461zm-16.994 20.003v-4h6v2h-2v2h10.618l.473-.946c.325-.65.978-1.054 1.705-1.054.501 0 .993.204 1.348.558l1.442 1.442h1.414c1.103 0 2 .897 2 2s-.897 2-2 2h-17c-2.206 0-4-1.794-4-4zm26 10h-18v-4h18zm4-6h-5.556c.344-.591.556-1.268.556-2s-.212-1.409-.556-2h5.556v-2h-2v-2h6v4c0 2.206-1.794 4-4 4zm4-10h-6v-4h-2v8h-5-.586l-.856-.856c-.738-.738-1.718-1.144-2.762-1.144-1.429 0-2.719.762-3.41 2h-5.386v-8h-2v4h-6v-2.196c0-2.755 1.214-5.347 3.33-7.111 1.364-1.136 3.016-1.853 4.777-2.074l1.491-.186 3.044 6.086 4.358-3.269 4.358 3.269 3.044-6.086 1.491.186c1.762.221 3.414.938 4.777 2.074 2.116 1.764 3.33 4.356 3.33 7.111z"/><path d="m37.94 22.361.339-1.361h-12.558l.339 1.362c.683 2.731 3.126 4.638 5.94 4.638s5.257-1.907 5.94-4.639zm-9.476.639h7.072c-.729 1.218-2.056 2-3.536 2s-2.806-.783-3.536-2z"/><path d="m51 23h8v2h-8z"/><path d="m47.757 17h8.485v2h-8.485z" transform="matrix(.707 -.707 .707 .707 2.503 42.042)"/><path d="m51 25.757h2v8.485h-2z" transform="matrix(.707 -.707 .707 .707 -5.983 45.556)"/><path d="m5 23h8v2h-8z"/><path d="m11 13.757h2v8.485h-2z" transform="matrix(.707 -.707 .707 .707 -9.213 13.757)"/><path d="m7.757 29h8.485v2h-8.485z" transform="matrix(.707 -.707 .707 .707 -17.699 17.272)"/></g></svg>