<svg id="Capa_1" enable-background="new 0 0 512 512" height="512" viewBox="0 0 512 512" width="512" xmlns="http://www.w3.org/2000/svg"><g><g><path clip-rule="evenodd" d="m130.573 198.806c-33.192-1.588-63.975 20.242-73.3 53.47l-44.643 158.849c-10.743 38.274 12.699 78.22 51.078 88.511 6.037 1.616 12.018 2.381 17.886 2.41h.17c31.831-.057 59.95-22.482 70.437-53.498 1.956-5.755 3.6-11.567 5.301-17.096-14.881-4.224-25.766-17.889-25.766-34.106 0-19.562 15.845-35.41 35.403-35.41s35.431 15.848 35.431 35.41h53.43 53.43c0-19.562 15.873-35.41 35.431-35.41s35.403 15.848 35.403 35.41c0 16.217-10.885 29.882-25.766 34.106 1.672 5.528 3.345 11.34 5.301 17.096 10.488 31.016 38.606 53.441 70.409 53.498h.198c5.867-.028 11.848-.794 17.886-2.41 38.379-10.291 61.82-50.238 51.078-88.511l-44.643-158.849c-9.326-33.227-40.108-55.057-73.3-53.47h-22.506l-20.012 56.021h-165.818l-20.012-56.021z" fill="#bfdbff" fill-rule="evenodd"/></g><g><path clip-rule="evenodd" d="m256 198.806h-102.921l20.012 56.021h165.818l20.012-56.021z" fill="#80b6ff" fill-rule="evenodd"/></g><g><path clip-rule="evenodd" d="m202.57 397.346c0-19.562-15.873-35.41-35.431-35.41s-35.403 15.848-35.403 35.41c0 16.217 10.884 29.882 25.766 34.106 3.061.851 6.293 1.333 9.637 1.333 19.557 0 35.431-15.877 35.431-35.439z" fill="#ecf2f3" fill-rule="evenodd"/></g><g><path clip-rule="evenodd" d="m344.862 361.936c-19.558 0-35.431 15.848-35.431 35.41s15.873 35.438 35.431 35.438c3.345 0 6.576-.482 9.637-1.333 14.881-4.224 25.766-17.889 25.766-34.106 0-19.561-15.845-35.409-35.403-35.409z" fill="#ecf2f3" fill-rule="evenodd"/></g><g><path d="m245.944 143.138c0 5.523 4.477 10.002 9.999 10.002h.057c5.523 0 9.971-4.478 9.971-10.002s-4.505-10.002-10.028-10.002c-5.522 0-9.999 4.478-9.999 10.002z"/><path d="m168.88 56.03c48.039-48.048 126.202-48.048 174.24 0 4.094 4.094 11.014 3.785 14.735-.648 3.29-3.919 3.021-9.881-.594-13.497-55.835-55.846-146.687-55.846-202.522 0-3.905 3.906-3.905 10.239 0 14.145 3.905 3.905 10.237 3.906 14.141 0z"/><path d="m320.485 88.642c3.936 0 7.684-2.491 9.215-6.116 1.55-3.669.67-8.143-2.144-10.958-39.455-39.464-103.656-39.464-143.111 0-3.905 3.906-3.905 10.239 0 14.145 3.906 3.906 10.237 3.906 14.141 0 31.659-31.666 83.171-31.666 114.83 0 1.951 1.953 4.51 2.929 7.069 2.929z"/><path d="m297.85 115.425c3.905-3.906 3.904-10.239 0-14.145-11.183-11.186-26.049-17.346-41.86-17.346-15.813 0-30.674 6.162-41.844 17.351-3.612 3.619-3.878 9.581-.584 13.498 3.725 4.43 10.644 4.736 14.736.638 7.392-7.405 17.227-11.483 27.693-11.483 10.469 0 20.313 4.08 27.72 11.487 3.903 3.905 10.234 3.905 14.139 0z"/><path d="m142.422 299.101h-17.382v-17.384c0-5.523-4.477-10.002-9.999-10.002-5.523 0-9.999 4.478-9.999 10.002v17.384h-17.355c-5.523 0-9.999 4.478-9.999 10.002 0 5.523 4.477 10.002 9.999 10.002h17.354v17.357c0 5.523 4.477 10.002 9.999 10.002 5.523 0 9.999-4.478 9.999-10.002v-17.357h17.382c5.523 0 9.999-4.478 9.999-10.002.001-5.523-4.476-10.002-9.998-10.002z"/><path d="m508.997 408.403-44.642-158.846c-5.093-18.146-16.268-34.195-31.467-45.191-15.024-10.869-33.376-16.381-51.692-15.577h-250.391c-18.312-.812-36.668 4.709-51.692 15.577-15.199 10.996-26.375 27.045-31.467 45.188l-44.643 158.852c-5.849 20.84-3.095 42.817 7.757 61.881 11.042 19.399 28.926 33.247 50.359 38.996 6.785 1.817 13.668 2.717 20.521 2.717 14.355-.001 28.563-3.95 41.362-11.666 18.007-10.857 31.74-28.115 38.667-48.583 1.036-3.05 1.978-6.082 2.879-9.058.858.049 1.721.079 2.59.079 21.614 0 39.739-15.181 44.308-35.438h89.107c4.569 20.258 22.694 35.438 44.308 35.438.867 0 1.727-.03 2.582-.078.907 2.982 1.851 6.005 2.884 9.046 6.931 20.48 20.664 37.738 38.671 48.595 18.908 11.401 40.888 14.577 61.883 8.948 21.433-5.748 39.317-19.596 50.359-38.996 10.852-19.065 13.607-41.042 7.757-61.884zm-341.859 14.365c-14.007 0-25.403-11.41-25.403-25.436 0-14.01 11.396-25.408 25.403-25.408 14.023 0 25.432 11.398 25.432 25.408.001 14.025-11.408 25.436-25.432 25.436zm152.292-25.437c0-14.01 11.409-25.408 25.432-25.408 14.007 0 25.403 11.398 25.403 25.408 0 14.026-11.396 25.436-25.403 25.436-14.023.001-25.432-11.41-25.432-25.436zm164.432 63.058c-8.377 14.718-21.929 25.219-38.158 29.571-32.055 8.597-64.914-10.594-76.436-44.646-.914-2.689-1.765-5.419-2.595-8.143 14.048-7.734 23.592-22.691 23.592-39.84 0-25.04-20.367-45.412-45.402-45.412-21.612 0-39.735 15.168-44.307 35.41h-89.11c-4.572-20.242-22.695-35.41-44.307-35.41-25.035 0-45.402 20.372-45.402 45.412 0 17.145 9.539 32.099 23.583 39.835-.827 2.726-1.674 5.466-2.589 8.159-11.519 34.039-44.377 53.229-76.433 44.634-16.23-4.352-29.782-14.853-38.158-29.571-8.186-14.382-10.275-30.924-5.882-46.573l44.642-158.851c7.896-28.134 34.482-47.557 63.196-46.183.159.008.318.012.478.012h15.46l17.641 49.385c1.422 3.979 5.191 6.636 9.416 6.636h38.01c5.523 0 9.999-4.478 9.999-10.002 0-5.523-4.477-10.002-9.999-10.002h-30.965l-12.866-36.017h177.46l-12.866 36.017h-30.965c-5.523 0-9.999 4.478-9.999 10.002 0 5.523 4.477 10.002 9.999 10.002h38.01c4.225 0 7.995-2.657 9.416-6.636l17.641-49.385h15.46c.159 0 .318-.004.478-.012 28.725-1.385 55.3 18.049 63.197 46.186l44.642 158.846c4.394 15.652 2.305 32.194-5.881 46.576z"/><path d="m394.126 267.774c-5.523 0-9.999 4.478-9.999 10.002 0 5.523 4.477 10.002 9.999 10.002h.057c5.523 0 9.971-4.478 9.971-10.002-.001-5.523-4.506-10.002-10.028-10.002z"/><path d="m394.126 330.429c-5.523 0-9.999 4.478-9.999 10.002 0 5.523 4.477 10.002 9.999 10.002h.057c5.523 0 9.971-4.478 9.971-10.002-.001-5.523-4.506-10.002-10.028-10.002z"/><path d="m362.832 299.101c-5.523 0-9.999 4.507-9.999 10.03s4.477 10.002 9.999 10.002c5.523 0 9.999-4.478 9.999-10.002v-.057c.001-5.523-4.476-9.973-9.999-9.973z"/><path d="m425.475 299.101c-5.523 0-9.999 4.507-9.999 10.03s4.477 10.002 9.999 10.002 9.999-4.478 9.999-10.002v-.057c0-5.523-4.477-9.973-9.999-9.973z"/><path d="m219.18 316.537h-14.513c-5.523 0-9.999 4.478-9.999 10.002 0 5.523 4.477 10.002 9.999 10.002h14.513c5.523 0 9.999-4.478 9.999-10.002s-4.476-10.002-9.999-10.002z"/><path d="m307.333 316.537h-14.513c-5.523 0-9.999 4.478-9.999 10.002 0 5.523 4.477 10.002 9.999 10.002h14.513c5.523 0 9.999-4.478 9.999-10.002s-4.477-10.002-9.999-10.002z"/><path d="m256 244.81c-5.523 0-9.999 4.478-9.999 10.002 0 5.523 4.477 10.002 9.999 10.002h.057c5.523 0 9.971-4.478 9.971-10.002s-4.505-10.002-10.028-10.002z"/></g></g></svg>